<svg width="435" height="435" viewBox="0 0 435 435" fill="none" xmlns="http://www.w3.org/2000/svg">
<circle cx="216" cy="219" r="208" fill="#C24040"/>
<path d="M281.857 216.765C283.698 215.545 284.202 213.063 282.981 211.221C281.761 209.379 279.279 208.876 277.438 210.096L281.857 216.765ZM253.281 269.274L252.972 273.262L253.281 269.274ZM287.314 289.734C288.271 291.725 290.662 292.562 292.652 291.604C294.643 290.647 295.48 288.256 294.522 286.266L287.314 289.734ZM137.343 153.99L289.039 288.802L294.354 282.822L142.657 148.01L137.343 153.99ZM294 286.266C295.561 282.583 295.562 282.584 295.564 282.584C295.565 282.584 295.566 282.585 295.567 282.586C295.569 282.586 295.57 282.587 295.571 282.587C295.573 282.588 295.574 282.589 295.574 282.589C295.574 282.588 295.569 282.586 295.559 282.582C295.539 282.573 295.501 282.556 295.445 282.53C295.334 282.479 295.152 282.393 294.909 282.27C294.422 282.025 293.691 281.635 292.78 281.083C290.956 279.978 288.43 278.238 285.718 275.738C280.31 270.752 274.165 262.753 271.328 250.668L263.539 252.496C266.809 266.424 273.947 275.767 280.296 281.62C283.462 284.539 286.433 286.592 288.636 287.926C289.738 288.594 290.653 289.084 291.309 289.415C291.637 289.58 291.901 289.706 292.092 289.794C292.188 289.838 292.265 289.873 292.323 289.898C292.353 289.911 292.377 289.922 292.396 289.93C292.406 289.934 292.414 289.938 292.421 289.941C292.425 289.943 292.428 289.944 292.431 289.945C292.433 289.946 292.435 289.947 292.435 289.947C292.437 289.948 292.439 289.949 294 286.266ZM271.328 250.668C268.539 238.79 271.337 230.317 274.669 224.827C276.36 222.043 278.218 219.983 279.638 218.63C280.346 217.956 280.939 217.464 281.337 217.153C281.536 216.997 281.685 216.887 281.776 216.822C281.821 216.79 281.851 216.769 281.865 216.76C281.872 216.755 281.875 216.753 281.873 216.754C281.873 216.754 281.871 216.755 281.868 216.757C281.867 216.758 281.865 216.759 281.863 216.76C281.862 216.761 281.86 216.762 281.86 216.762C281.858 216.764 281.857 216.765 279.647 213.43C277.438 210.096 277.436 210.097 277.434 210.099C277.433 210.099 277.431 210.1 277.429 210.101C277.426 210.103 277.423 210.106 277.419 210.108C277.412 210.113 277.404 210.119 277.394 210.125C277.376 210.138 277.352 210.154 277.325 210.172C277.27 210.21 277.198 210.261 277.11 210.324C276.935 210.45 276.697 210.626 276.406 210.853C275.827 211.307 275.036 211.966 274.122 212.837C272.297 214.574 269.957 217.174 267.831 220.676C263.531 227.759 260.221 238.362 263.539 252.496L271.328 250.668ZM209.25 279.511C211.888 282.518 211.887 282.519 211.885 282.52C211.885 282.521 211.883 282.522 211.882 282.523C211.881 282.525 211.879 282.526 211.878 282.527C211.875 282.529 211.873 282.531 211.872 282.532C211.87 282.534 211.872 282.532 211.876 282.528C211.886 282.52 211.909 282.501 211.946 282.471C212.02 282.411 212.148 282.308 212.33 282.171C212.696 281.895 213.28 281.477 214.084 280.969C215.693 279.953 218.182 278.576 221.57 277.253C228.328 274.613 238.734 272.157 252.972 273.262L253.591 265.286C238.092 264.083 226.482 266.745 218.659 269.801C214.756 271.326 211.813 272.941 209.812 274.205C208.811 274.837 208.046 275.382 207.514 275.783C207.247 275.984 207.039 276.149 206.889 276.272C206.814 276.333 206.753 276.384 206.707 276.423C206.684 276.442 206.664 276.459 206.648 276.473C206.64 276.48 206.633 276.486 206.627 276.491C206.624 276.494 206.621 276.496 206.618 276.499C206.617 276.5 206.615 276.502 206.615 276.502C206.613 276.504 206.611 276.505 209.25 279.511ZM252.972 273.262C267.094 274.358 275.755 278.77 280.807 282.669C283.351 284.633 285.027 286.502 286.042 287.829C286.55 288.493 286.894 289.022 287.097 289.359C287.199 289.528 287.266 289.648 287.301 289.713C287.318 289.745 287.328 289.764 287.33 289.768C287.331 289.77 287.33 289.768 287.327 289.763C287.326 289.76 287.324 289.756 287.322 289.751C287.321 289.749 287.319 289.746 287.318 289.744C287.317 289.742 287.316 289.74 287.316 289.739C287.315 289.737 287.314 289.734 290.918 288C294.522 286.266 294.521 286.263 294.52 286.26C294.519 286.259 294.518 286.257 294.517 286.255C294.515 286.251 294.513 286.247 294.511 286.243C294.507 286.234 294.502 286.224 294.497 286.214C294.486 286.192 294.474 286.167 294.459 286.138C294.429 286.079 294.391 286.005 294.343 285.917C294.248 285.74 294.116 285.506 293.944 285.221C293.599 284.651 293.093 283.879 292.396 282.968C291.001 281.145 288.843 278.766 285.695 276.336C279.363 271.449 269.205 266.498 253.591 265.286L252.972 273.262Z" fill="#F5F5F5"/>
</svg>
