<svg width="110" height="110" viewBox="0 0 435 435" fill="none" xmlns="http://www.w3.org/2000/svg">
<circle cx="216" cy="219" r="208" fill="#C24040"/>
<path d="M102.995 238V201.636H125.545V206.359H108.482V217.439H123.929V222.144H108.482V238H102.995ZM147.433 226.69V210.727H152.76V238H147.54V233.277H147.256C146.628 234.733 145.622 235.946 144.237 236.917C142.864 237.876 141.153 238.355 139.106 238.355C137.354 238.355 135.803 237.97 134.454 237.201C133.116 236.42 132.063 235.266 131.293 233.739C130.536 232.212 130.157 230.324 130.157 228.075V210.727H135.466V227.435C135.466 229.294 135.981 230.773 137.01 231.874C138.04 232.975 139.378 233.526 141.023 233.526C142.018 233.526 143.006 233.277 143.988 232.78C144.983 232.283 145.805 231.531 146.456 230.525C147.119 229.519 147.445 228.24 147.433 226.69ZM165.202 201.636V238H159.893V201.636H165.202ZM177.653 201.636V238H172.344V201.636H177.653ZM201.632 201.636L211.753 231.253H212.161L222.282 201.636H228.213L215.127 238H208.788L195.702 201.636H201.632ZM233.038 238V210.727H238.347V238H233.038ZM235.719 206.519C234.795 206.519 234.002 206.211 233.339 205.596C232.688 204.969 232.363 204.223 232.363 203.359C232.363 202.483 232.688 201.737 233.339 201.121C234.002 200.494 234.795 200.18 235.719 200.18C236.642 200.18 237.429 200.494 238.08 201.121C238.743 201.737 239.075 202.483 239.075 203.359C239.075 204.223 238.743 204.969 238.08 205.596C237.429 206.211 236.642 206.519 235.719 206.519ZM255.698 238.533C253.497 238.533 251.532 237.97 249.803 236.846C248.087 235.71 246.738 234.094 245.755 231.999C244.785 229.892 244.299 227.364 244.299 224.417C244.299 221.469 244.79 218.948 245.773 216.853C246.767 214.758 248.128 213.154 249.857 212.041C251.585 210.929 253.544 210.372 255.734 210.372C257.427 210.372 258.788 210.656 259.818 211.224C260.859 211.781 261.664 212.432 262.232 213.178C262.812 213.923 263.262 214.58 263.582 215.148H263.901V201.636H269.21V238H264.026V233.756H263.582C263.262 234.336 262.801 234.999 262.197 235.745C261.605 236.491 260.788 237.142 259.747 237.698C258.705 238.254 257.356 238.533 255.698 238.533ZM256.87 234.005C258.397 234.005 259.687 233.603 260.741 232.798C261.806 231.981 262.611 230.85 263.156 229.406C263.712 227.962 263.99 226.281 263.99 224.364C263.99 222.47 263.718 220.812 263.173 219.392C262.629 217.972 261.83 216.865 260.776 216.072C259.723 215.279 258.421 214.882 256.87 214.882C255.272 214.882 253.941 215.296 252.875 216.125C251.81 216.954 251.005 218.084 250.46 219.516C249.928 220.949 249.661 222.564 249.661 224.364C249.661 226.187 249.934 227.826 250.478 229.282C251.023 230.738 251.828 231.892 252.893 232.744C253.97 233.585 255.296 234.005 256.87 234.005ZM288.542 238.55C285.855 238.55 283.541 237.976 281.599 236.828C279.67 235.668 278.179 234.04 277.125 231.945C276.083 229.838 275.562 227.37 275.562 224.541C275.562 221.748 276.083 219.286 277.125 217.155C278.179 215.024 279.646 213.361 281.528 212.165C283.422 210.97 285.636 210.372 288.169 210.372C289.708 210.372 291.199 210.627 292.643 211.136C294.088 211.645 295.384 212.444 296.532 213.533C297.68 214.622 298.586 216.036 299.249 217.776C299.911 219.504 300.243 221.606 300.243 224.08V225.962H278.563V221.984H295.04C295.04 220.588 294.756 219.351 294.188 218.273C293.62 217.184 292.821 216.326 291.791 215.699C290.773 215.071 289.578 214.758 288.205 214.758C286.713 214.758 285.411 215.125 284.298 215.859C283.197 216.581 282.345 217.528 281.741 218.7C281.15 219.86 280.854 221.12 280.854 222.482V225.589C280.854 227.412 281.173 228.962 281.812 230.241C282.464 231.519 283.369 232.496 284.529 233.17C285.689 233.833 287.045 234.165 288.595 234.165C289.601 234.165 290.519 234.023 291.347 233.739C292.176 233.443 292.892 233.005 293.496 232.425C294.099 231.845 294.561 231.129 294.881 230.276L299.906 231.182C299.503 232.661 298.781 233.958 297.739 235.07C296.71 236.171 295.413 237.029 293.851 237.645C292.3 238.249 290.531 238.55 288.542 238.55ZM317.621 238.55C315.064 238.55 312.833 237.964 310.927 236.793C309.022 235.621 307.542 233.981 306.488 231.874C305.435 229.767 304.908 227.305 304.908 224.488C304.908 221.659 305.435 219.185 306.488 217.066C307.542 214.947 309.022 213.302 310.927 212.13C312.833 210.958 315.064 210.372 317.621 210.372C320.178 210.372 322.409 210.958 324.315 212.13C326.221 213.302 327.701 214.947 328.754 217.066C329.808 219.185 330.334 221.659 330.334 224.488C330.334 227.305 329.808 229.767 328.754 231.874C327.701 233.981 326.221 235.621 324.315 236.793C322.409 237.964 320.178 238.55 317.621 238.55ZM317.639 234.094C319.296 234.094 320.669 233.656 321.758 232.78C322.847 231.904 323.652 230.738 324.173 229.282C324.706 227.826 324.972 226.222 324.972 224.47C324.972 222.73 324.706 221.132 324.173 219.676C323.652 218.208 322.847 217.031 321.758 216.143C320.669 215.255 319.296 214.811 317.639 214.811C315.97 214.811 314.585 215.255 313.484 216.143C312.395 217.031 311.584 218.208 311.052 219.676C310.531 221.132 310.27 222.73 310.27 224.47C310.27 226.222 310.531 227.826 311.052 229.282C311.584 230.738 312.395 231.904 313.484 232.78C314.585 233.656 315.97 234.094 317.639 234.094Z" fill="#F5F5F5"/>
</svg>
