<svg width="170" height="170" viewBox="0 0 100 100" fill="none" xmlns="http://www.w3.org/2000/svg">

                    <g id="orange">
                    <circle id="circleo" cx="50" cy="50" r="50" fill="#D53737"/>
                    <path id="Vector" d="M56.3125 51L54.9869 52.3256L57.4066 54.75H49.75C48.7554 54.75 47.8016 55.1451 47.0983 55.8484C46.3951 56.5516 46 57.5054 46 58.5C46 59.4946 46.3951 60.4484 47.0983 61.1516C47.8016 61.8549 48.7554 62.25 49.75 62.25H51.625V60.375H49.75C49.2527 60.375 48.7758 60.1775 48.4242 59.8258C48.0725 59.4742 47.875 58.9973 47.875 58.5C47.875 58.0027 48.0725 57.5258 48.4242 57.1742C48.7758 56.8225 49.2527 56.625 49.75 56.625H57.4066L54.985 59.0503L56.3125 60.375L61 55.6875L56.3125 51Z" fill="white"/>
                    <path id="Vector_2" d="M44.5 57.875H38.875L38.8722 43.7244L49.5916 51.1456C49.7483 51.2541 49.9344 51.3122 50.125 51.3122C50.3156 51.3122 50.5017 51.2541 50.6584 51.1456L61.375 43.7281V52.25H63.25V42.875C63.2495 42.3779 63.0518 41.9012 62.7003 41.5497C62.3488 41.1982 61.8721 41.0005 61.375 41H38.875C38.3782 41 37.9017 41.1972 37.5502 41.5482C37.1986 41.8992 37.0008 42.3754 37 42.8722V57.875C37.0007 58.3721 37.1985 58.8485 37.55 59.2C37.9015 59.5515 38.3779 59.7493 38.875 59.75H44.5V57.875ZM59.3116 42.875L50.125 49.235L40.9384 42.875H59.3116Z" fill="white"/>
                    </g>
                </svg>